<?xml version="1.0" encoding="UTF-8" standalone="no"?><!DOCTYPE svg PUBLIC "-//W3C//DTD SVG 1.1//EN" "http://www.w3.org/Graphics/SVG/1.1/DTD/svg11.dtd"><svg width="100%" height="100%" viewBox="0 0 4800 1873" version="1.1" xmlns="http://www.w3.org/2000/svg" xmlns:xlink="http://www.w3.org/1999/xlink" xml:space="preserve" xmlns:serif="http://www.serif.com/" style="fill-rule:evenodd;clip-rule:evenodd;stroke-linejoin:round;stroke-miterlimit:2;"><g id="Vector"><g id="A"><path d="M462.23,311.104l31.792,0l378.53,843.991l-161.11,-0l-50.303,-121.719l-366.554,0.153l-50.114,121.566l-160.44,-0l378.199,-843.991Zm10.077,327.444c-7.526,15.472 -24.28,52.775 -42.802,94.552c-33.909,76.479 -73.746,167.956 -73.746,167.956l239.143,-0.55c0,0 -30.344,-72.969 -59.908,-143.007c-21.603,-51.179 -42.79,-100.792 -51.417,-119.226c-1.593,-3.403 -9.626,-3.104 -11.27,0.275Z" style="fill:#fff;"/></g><path id="L" d="M940.269,306.247l137.975,-0.537l0,849.385l-140.123,-0l2.148,-848.848Z" style="fill:#fff;"/><path id="M" d="M1199.58,1155.1l144.418,-0l0,-376.402c0,-0 13.047,-122.482 125.575,-122.912c112.528,-0.429 112.957,123.266 112.957,123.266l0,376.048l144.36,-0l0,-379.484c0,-0 1.093,-121.977 124.125,-118.541c123.031,3.436 111.881,119.829 111.881,119.829l0.263,378.196l144.558,-0l0,-385.43c0,-0 -9.364,-97.912 -27.714,-131.392c-18.35,-33.48 -40.883,-117.523 -178.865,-121.843c-151.477,-4.743 -207.924,96.075 -207.924,96.075c0,-0 -50.231,-103.699 -177.738,-99.001c-127.506,4.698 -175.154,60.398 -175.154,60.398l-0.474,-39.386l-138.891,-0.822l-1.377,621.401Z" style="fill:#fff;"/><g id="A1" serif:id="A"><path d="M2194.16,834.222c-0,0 9.607,-293.218 278.501,-320.873c142,-14.604 226.679,79.758 226.679,79.758l3.169,-61.237l130.862,0.839l1.677,622.386l-143.258,-0l0,-52.8c0,-0 -71.162,81.198 -202.429,74.715c-230.706,-11.394 -280.461,-225.056 -280.461,-225.056c0,-0 -6.942,-2.299 -14.911,-78.42c-1.87,-17.861 0.171,-39.312 0.171,-39.312Zm323.986,-175.761c-83.808,-3.645 -181.649,88.993 -178.677,187.865c3.323,110.536 96.468,194.327 182.032,188.743c85.383,-5.572 169.003,-84.031 170.289,-186.227c1.127,-89.606 -70.464,-185.893 -173.644,-190.381Z" style="fill:#fff;"/></g><path id="Z" d="M2939.58,673.148c-1.43,-1.215 -1.522,-34.468 -1.566,-68.462c-0.044,-34.68 -0.01,-70.117 1.566,-71.661c2.476,-2.425 397.894,0.244 477.814,-0.537c2.841,-0.028 3.095,6.923 3.103,14.679c0.007,7.111 0.004,14.842 -2.566,19.681c-40.533,76.325 -202.937,351.202 -243.739,423.59c-1.766,3.134 -5.1,11.025 -1.073,10.737c41.386,-2.957 41.339,-5.239 248.57,16.107c1.068,0.11 2.186,106.494 0.537,132.07c-0.255,3.952 -17.436,3.186 -25.77,1.073c-38.833,-9.842 -91.804,-58.519 -207.231,-60.129c-115.427,-1.611 -185.084,53.999 -228.17,64.799c-9.811,2.459 -24.886,5.61 -30.344,-0c-5.458,-5.61 -7.722,-23.748 -2.405,-33.661c43.175,-80.503 261.456,-449.36 261.456,-449.36c-0,0 -247.597,3.269 -250.182,1.074Z" style="fill:#fff;"/><g id="E"><path d="M3934.04,972.377c1.087,-1.05 7.941,-1.224 14.531,-1.222c5.697,0.001 11.161,-0.081 12.957,2.081c13.638,16.422 66.413,61.798 77.035,73c1.071,1.129 1.103,9.064 1.075,16.962c-0.028,8.122 -0.153,16.213 -1.66,17.412c-36.824,29.318 -88.905,99.906 -249.537,96.768c-160.631,-3.138 -223.338,-93.332 -223.338,-93.332c0,0 -88.817,-52.237 -93.2,-240.656c-1.521,-65.363 28.487,-322.001 312.64,-331.577c259.017,-8.728 297.532,254.063 297.532,254.063c0,-0 5.237,79.928 -5.242,136.314c-0.988,5.314 -449.576,3.933 -449.576,3.933c-0,-0 24.511,104.249 141.352,125.59c103.723,18.946 161.568,-55.6 165.431,-59.336Zm-310.931,-181.256l315.765,0.343c-0,0 -21.99,-130.566 -149.121,-132.971c-127.13,-2.406 -166.644,132.628 -166.644,132.628Z" style="fill:#fff;"/></g><path id="N" d="M4173.35,1155.1l-0.429,-622.607l132.714,0c-0,0 1.364,41.146 1.718,41.2c3.9,0.603 12.163,0.682 15.032,0c2.039,-0.484 48.694,-57.138 165.214,-55.596c117.57,1.557 167.074,61.418 167.074,61.418c0,-0 45.299,45.184 60.129,155.907c2.148,16.033 2.577,419.678 2.577,419.678l-139.156,-0l-0,-337.932c-0,-0 6.442,-161.845 -128.849,-162.097c-135.291,-0.253 -135.72,153.936 -135.72,153.936l-1.289,346.093l-139.015,-0Z" style="fill:#fff;"/><path d="M768.562,1210.03c1.923,-0.633 25.543,-0.267 25.543,-0.267c-0,0 19.061,0.089 26.835,1.945c26.063,6.223 976.357,438.396 2227.35,90.711c0.912,-0.253 50.372,0.253 50.372,0.253c-0,-0 26.409,3.094 17.517,40.381c-0.091,0.378 -26.938,21.99 -26.938,21.99c-0,0 -1169.86,518.195 -2321.22,-114.363c-0.073,-0.04 -2.129,-2.67 -2.811,-12.717c-0.66,-9.708 -0.008,-26.827 3.351,-27.933Z" style="fill:#fff;"/><path d="M2865.64,1259.28l62.668,-0.319c0,-0 262.878,-36.706 287.958,23.488c13.422,32.212 -80.53,181.864 -80.53,181.864c-0,-0 -7.155,20.061 0.769,28.622c7.923,8.561 38.829,1.851 38.829,1.851c0,-0 183.121,-100.629 166.394,-284.755c-3.357,-36.944 -189.247,-32.58 -189.247,-32.58c0,-0 -230.925,7.144 -287.895,50.424c-13.345,10.137 1.054,31.405 1.054,31.405Z" style="fill:#fff;"/></g></svg>